/* XPM */
static char * eigene dateien\dokumente\workspaces\planmodeller\de_uni_kassel_ascharf_pml_ui\icons\cn200832x32_xpm[] = {
"32 32 139 2",
"  	c Gray100",
". 	c #fefefe",
"X 	c Gray92",
"o 	c #eaeaea",
"O 	c Gray56",
"+ 	c #aeaeae",
"@ 	c Gray87",
"# 	c Gray55",
"$ 	c Gray80",
"% 	c #cdcdcd",
"& 	c Gray94",
"* 	c #fbfbfb",
"= 	c #dddddd",
"- 	c #c1c1c1",
"; 	c #c0c0c0",
": 	c #7b7b7b",
"> 	c #8e8e8e",
", 	c Gray65",
"< 	c #848484",
"1 	c Gray77",
"2 	c Gray53",
"3 	c Gray76",
"4 	c #fdfdfd",
"5 	c #d8d8d8",
"6 	c #818181",
"7 	c Gray28",
"8 	c Gray45",
"9 	c Gray63",
"0 	c #909090",
"q 	c #6a6a6a",
"w 	c Gray81",
"e 	c #f1f1f1",
"r 	c #797979",
"t 	c #bcbcbc",
"y 	c Gray47",
"u 	c #b9b9b9",
"i 	c Gray98",
"p 	c Gray90",
"a 	c #686868",
"s 	c #a0a0a0",
"d 	c #b7b7b7",
"f 	c #8b8b8b",
"g 	c Gray68",
"h 	c #aaaaaa",
"j 	c #bbbbbb",
"k 	c #9d9d9d",
"l 	c #b1b1b1",
"z 	c #acacac",
"x 	c Gray93",
"c 	c Gray43",
"v 	c #8d8d8d",
"b 	c Gray42",
"n 	c #d2d2d2",
"m 	c Gray99",
"M 	c #f4f4f4",
"N 	c #e2e2e2",
"B 	c #d7d7d7",
"V 	c Gray91",
"C 	c #f6f6f6",
"Z 	c Gray73",
"A 	c #868686",
"S 	c Gray23",
"D 	c Gray51",
"F 	c #f8f8f8",
"G 	c #e7e7e7",
"H 	c #9b9b9b",
"J 	c #676767",
"K 	c #c6c6c6",
"L 	c #dfdfdf",
"P 	c Gray74",
"I 	c #bebebe",
"U 	c #d3d3d3",
"Y 	c #e1e1e1",
"T 	c Gray37",
"R 	c #9f9f9f",
"E 	c #3e3e3e",
"W 	c Gray49",
"Q 	c #a4a4a4",
"! 	c Gray95",
"~ 	c Gray88",
"^ 	c #b2b2b2",
"/ 	c #c8c8c8",
"( 	c #cbcbcb",
") 	c Gray97",
"_ 	c Gray67",
"` 	c Gray64",
"' 	c #efefef",
"] 	c #cecece",
"[ 	c Gray50",
"{ 	c #989898",
"} 	c Gray61",
"| 	c Gray89",
" .	c #eeeeee",
"..	c #898989",
"X.	c #e9e9e9",
"o.	c #b6b6b6",
"O.	c Gray66",
"+.	c Gray82",
"@.	c Gray96",
"#.	c Gray70",
"$.	c Gray85",
"%.	c #959595",
"&.	c #e6e6e6",
"*.	c #f3f3f3",
"=.	c #c3c3c3",
"-.	c #838383",
";.	c Gray84",
":.	c #f9f9f9",
">.	c #a9a9a9",
",.	c Gray78",
"<.	c Gray86",
"1.	c #d0d0d0",
"2.	c #cacaca",
"3.	c Gray75",
"4.	c Gray72",
"5.	c #e4e4e4",
"6.	c #d5d5d5",
"7.	c gainsboro",
"8.	c Gray79",
"9.	c Gray69",
"0.	c #939393",
"q.	c #c5c5c5",
"w.	c #5d5d5d",
"e.	c #b4b4b4",
"r.	c #767676",
"t.	c #5b5b5b",
"y.	c #777777",
"u.	c #2c2c2c",
"i.	c Gray71",
"p.	c Gray34",
"a.	c Gray41",
"s.	c #151515",
"d.	c Gray36",
"f.	c Gray59",
"g.	c Gray58",
"h.	c #afafaf",
"j.	c #a5a5a5",
"k.	c #ececec",
"l.	c #a7a7a7",
"                                                                ",
"                                                                ",
"                      .   X o O + @ # $ % &                     ",
"                      * = - ; : > , < 1 2 3 4 .                 ",
"                  5 5   6 7 8 9 0 q w e r t y u                 ",
"              i p a s 4 d f g h j $ k 5 l l q % z x .           ",
"              O c v b n m M . N 5 B @ V C Z k A S D F           ",
"          G , H J X K L % j i Z h g P I 3 U Y - T R             ",
"          u E W Q ! ~ ^ / ( ) m i m ) G ( _ `   p '       i = x ",
"        ] % [ { ' - } | m                  .o           i h R Y ",
"        u S f ! - ..X.          ! F             p N ! B o.O.+.@.",
"    . #.  O U $.%.Y       &.F *.9 l             ^ ` =./ x % ~ m ",
"    ) -.z R ~ v ;.      :.{ 9 ; d >.) e ,.)   = #.F i     - V   ",
"      @ %.w . L )       :.u / <.1.2.j d d 3.t 4.'         3 @ 4 ",
"                      G   3 5.&..  .6.7.  F & m           @ 3.X.",
"            8.F     G } 9.t M B l 9.                      * R l ",
"( ;.e ! &.$ 0.d = 7.z N *.i . d l X       @.N *         F o.q.~ ",
",.D 3.1 1 n * Y 1 - X.                  , w.e.r I e     Z 2.    ",
"  ;.e.) .                             L r.- 3 _ t.e./ L o.      ",
"    P U                               g ; y.u._ e.&.$.# Y       ",
"    ! i.i                     m     4 p.Z a.s.I : /   &.*       ",
"      P *.        *.K P X $.u d j @.~ W O 3.I ` d.M q./         ",
"      Z K | 4   C 9.5 G f.i.*.@.6._ o.V P T 8 >.@ | + =         ",
"      | 8.=.o.= 5 8.    X.)       6.g.4 F / K *.* u h.          ",
"            ! j f.G                 @..       i K j.@.          ",
"                ;.M 7.*                     * ] R ' m           ",
"                  Y %.1.M .               M Z 6 k.              ",
"                  F 5.] l.( 7.G  .* 5.w 1.*./ o                 ",
"                      4 N ;.>._ e.m >.+.L                       ",
"                          M ,.K K . q.&.:.                      ",
"                                                                ",
"                                                                "};
